<?xml version="1.0" encoding="UTF-8"?>
<svg id="Layer_1" data-name="Layer 1" xmlns="http://www.w3.org/2000/svg" version="1.1" viewBox="0 0 24 24">
  <defs>
    <style>
      .cls-1, .cls-2 {
        fill: #F59E0B;
      }

      .cls-1, .cls-3, .cls-4 {
        stroke-width: 0px;
      }

      .cls-2 {
        font-family: MyriadPro-Regular, 'Myriad Pro';
        font-size: 72px;
      }

      .cls-3 {
        fill: #000;
      }

      .cls-4 {
        fill: #fff;
      }
    </style>
  </defs>
  <g id="COepts">
    <g>
      <path class="cls-4" d="M-96.6,217.2h-1300.9c0-364,0-727.9,0-1091.9,433.6,0,867.2,0,1300.9,0,0,364,0,727.9,0,1091.9ZM-920.9-527.5c-1.4.7-2.5,1.4-3.6,2-27.7,12.6-55.4,25.2-83.2,37.7-10.9,4.9-16.7,14-18.6,26.3-1.7,11.3.3,22.2,4,32.7,3.7,10.5,7.5,21.1,11.2,31.6,31.7,89.6,63.4,179.2,95.1,268.9,19.3,54.5,38.6,108.9,57.8,163.4,2.2,6.2,5.7,10.9,10.9,14.2,10,6.4,20.6,7.9,31.6,3.1,30.2-13.3,60.5-26.6,90.7-40,2.4-1.1,4.5-1.2,7-.3,27.3,10.2,54.7,20.2,82,30.3,46.6,17.2,93.3,34.2,139.9,51.6,16.8,6.2,33.9-3.6,39.1-21.2,9.2-31.2,19.2-62.1,28.8-93.2,15.5-49.9,31-99.9,46.5-149.8,16.6-53.5,33.2-107,49.8-160.6,12.7-40.9,25.4-81.7,38.2-122.6,2.3-7.3,3.3-14.6,2.2-22.2-2.8-19.3-12-33.1-29.4-39.4-16.5-6.1-33.2-11.8-49.8-17.6-44.9-15.8-89.8-31.6-134.7-47.4-1.5-.5-3-1.1-4.5-1.7-.2-1.3-.3-2.4-.4-3.5-1.6-22.4-3.1-44.8-4.9-67.1-1.2-15.2-8.3-26.1-20.6-33.1-8.5-4.8-17.7-5.3-27-4.2-15.8,1.9-31.6,3.6-47.4,5.3-18.4,2-36.8,4-55.2,6-18.2,2-36.5,4.1-54.7,6.1-15.5,1.7-31,3.3-46.6,5.1-21.8,2.4-43.7,5-65.5,7.4-20.7,2.3-41.4,4.5-62.1,6.7-8.7,1-15.9,5.3-21.9,12.2-4.1,4.7-7.1,10.3-9.4,16.2-2.9,7.5-4.7,15.3-3.8,23.4,1.9,17.1,4.2,34.2,6.2,51.3.9,7.4,1.7,14.9,2.5,22.5Z"/>
      <path class="cls-3" d="M-920.9-527.5c-.9-7.6-1.6-15.1-2.5-22.5-2.1-17.1-4.3-34.2-6.2-51.3-.9-8.1.9-15.9,3.8-23.4,2.3-6,5.3-11.5,9.4-16.2,6-6.9,13.2-11.2,21.9-12.2,20.7-2.3,41.4-4.4,62.1-6.7,21.8-2.4,43.7-5,65.5-7.4,15.5-1.7,31-3.4,46.6-5.1,18.2-2,36.5-4.1,54.7-6.1,18.4-2,36.8-4,55.2-6,15.8-1.7,31.6-3.4,47.4-5.3,9.4-1.1,18.5-.6,27,4.2,12.3,7,19.5,17.9,20.6,33.1,1.7,22.4,3.3,44.7,4.9,67.1,0,1.1.2,2.2.4,3.5,1.5.6,3,1.2,4.5,1.7,44.9,15.8,89.8,31.6,134.7,47.4,16.6,5.8,33.3,11.6,49.8,17.6,17.4,6.4,26.6,20.2,29.4,39.4,1.1,7.6,0,15-2.2,22.2-12.7,40.9-25.5,81.7-38.2,122.6-16.6,53.5-33.2,107-49.8,160.6-15.5,49.9-31,99.9-46.5,149.8-9.6,31.1-19.6,62-28.8,93.2-5.2,17.6-22.3,27.4-39.1,21.2-46.6-17.4-93.2-34.4-139.9-51.6-27.3-10.1-54.7-20.1-82-30.3-2.5-.9-4.6-.8-7,.3-30.2,13.4-60.5,26.7-90.7,40-11,4.9-21.5,3.3-31.6-3.1-5.1-3.3-8.7-8-10.9-14.2-19.2-54.5-38.5-108.9-57.8-163.4-31.7-89.6-63.4-179.2-95.1-268.9-3.7-10.5-7.5-21.1-11.2-31.6-3.7-10.6-5.7-21.4-4-32.7,1.9-12.3,7.7-21.4,18.6-26.3,27.7-12.5,55.5-25.1,83.2-37.7,1.2-.5,2.3-1.2,3.6-2ZM-817.8-75.6c.4,3.1.5,5.8,1.1,8.3,2.9,11.8,10.1,18.9,20.7,22.6,37.9,13.3,75.8,26.7,113.7,40.1,59.3,20.9,118.6,41.9,177.9,62.8,16.7,5.9,31.6-2.4,37.1-20.5,6.1-20.3,12.1-40.6,18.2-60.8,25.4-84.9,50.8-169.7,76.2-254.6,17.1-57.1,34.2-114.2,51.3-171.4,1-3.3,1.7-6.7,2-10.1.8-11.1-5.4-25.5-20.9-30.9-40-13.9-79.9-28.2-119.9-42.3-57.4-20.3-114.8-40.4-172.1-60.9-15.7-5.6-32.4,2.7-37.5,20.7-7,24.7-14.6,49.2-22,73.9-22.9,76.4-45.7,152.7-68.6,229.1-18.4,61.6-36.9,123.2-55.2,184.8-.9,3.1-1.4,6.4-2,9.2ZM-534.9-590.6c0-1.1.2-1.6.2-2-1.4-14.5-2.8-29-4.3-43.5-1.8-17.2-16-29-31.5-26.8-6,.8-12.1,1.4-18.1,2.1-19.8,2.3-39.6,4.6-59.5,6.9-17.4,2-34.7,4.2-52.1,6.2-20.1,2.4-40.2,4.7-60.3,7-19.8,2.3-39.6,4.7-59.4,7.1-19.5,2.3-39.1,4.4-58.6,6.8-15.5,1.9-26.2,16.5-24.8,33.3.6,6.4,1.2,12.8,1.9,19.2,1.9,19.2,3.8,38.4,5.7,57.6,2.1,21.4,4.3,42.7,6.4,64.1,1.6,16.4,3.2,32.8,4.9,49.1,1.9,19,3.8,38.1,5.7,57.1,1.8,18.4,3.6,36.8,5.5,55.2,2.2,21.5,4.4,43,6.5,64.6,1.9,19.3,3.8,38.7,5.7,58,1.9,19.2,3.8,38.4,5.7,57.6,1.1,10.8,1.9,21.6,3.4,32.3,1.5,10.7,7.4,18,16.8,22.8-.1-1.5-.1-2.3-.3-3.2-.8-6.1-.7-12.1,1-18.2,10.5-36.8,21-73.7,31.5-110.6,11.3-39.9,22.6-79.7,34-119.6.7-2.4.8-4.8.6-7.4-1.6-15.3-3.1-30.6-4.6-45.9-2.2-21.8-4.3-43.7-6.5-65.5-2.3-23.6-4.7-47.1-7.1-70.7-.4-4.3.5-8.4,2.6-12.2,1.8-3.3,4.5-5.2,8.1-5.6,13.8-1.6,27.6-3.2,41.4-4.8,8.7-1,17.5-2.1,26.4-3.2.5-1.4,1-2.6,1.4-4,6.8-23.7,13.6-47.3,20.2-71,3.5-12.5,10.7-21,21.8-25.6,11.1-4.6,22.3-4.8,33.6-.9,30.2,10.6,60.4,21.2,90.7,31.9,1.8.6,3.6,1.2,5.7,1.8ZM-751.5.9c0-.3,0-.7,0-1-1.3-.5-2.6-1.1-4-1.6-18.2-6.7-36.3-13.5-54.5-20.1-4.8-1.7-9-4.3-12.3-8.5-1.5-1.9-3.1-2.7-5.3-2.1-.4.1-.9.1-1.3.2-18.8,4.1-33.8-11.2-36-29-2.7-21.9-5.3-43.9-7.9-65.8-2.2-18.7-4.5-37.3-6.7-56-2.4-20.4-4.9-40.8-7.3-61.1-2.1-17.4-4.1-34.8-6.2-52.3-.2-1.7-.6-3.3-.9-5-.2,0-.4,0-.6,0-.7,4.2-1.4,8.5-2.2,13.3-10.5-7-20.7-13.4-30.5-20.5-3.5-2.5-6.1-6.6-8.7-10.3-2.1-3-2.9-6.8-2.8-10.7.2-5.4,2.5-9.3,7-11.5,4.6-2.3,8.7-1.2,12.5,2.1,1,.9,2,1.9,3.6,3.5-1.1-6-.6-10.7,3-14.4,3.6-3.7,8.1-3.4,12.9-2.4-1.2-9.5-2.3-18.5-3.4-27.7h-5.8c-.9,8-5.3,12.7-11.4,15.6-3.2,1.5-6.5,2.6-9.9,3.5-8.3,2.2-16-2-19.7-10.4-1-2.4-2-4.8-3.1-7.7-2,1.5-3.7,2.8-5.9,4.4-1.1-3.4-2.1-6.4-3.1-9.6,1.9-1.7,3.6-3.3,5.4-4.9-.7-1.9-1.2-3.5-1.8-5.1-4-11.6-8-23.2-11.9-34.9-.9-2.6-1.7-5.4-1.9-8.2-.5-7.1,1.4-13.3,7.3-16.9,4.5-2.7,9.4-4.7,14.4-6.3,6.7-2.2,12.2.6,16.3,6.6,1.6,2.4,2.9,5.1,3.9,7.8,6,16.7,11.9,33.4,17.7,50.1,1.8,5.1,2.2,5.5,8.1,4.4-4.5-37.1-8.9-74.2-13.4-111.5-1.2.3-1.9.4-2.6.7-22.5,9.4-45.1,18.7-67.5,28.3-3.4,1.5-6.7,4-9.2,6.9-7.4,8.5-9.1,18.6-5.3,29.7,4.8,13.6,9.6,27.2,14.4,40.9,14.5,41,28.9,82,43.4,123,16,45.1,32,90.2,47.9,135.3,17.3,48.8,34.6,97.5,51.6,146.3,5.6,16.1,21.4,23.3,35.2,17.2,15.9-7,32.1-13.4,48.1-20.1,3.3-1.4,6.7-2.8,10-4.2ZM-921.8-393.1c-.4-1.7-.6-2.7-.9-3.7-5.5-15.3-11-30.6-16.5-45.9-.4-1.2-.9-2.3-1.5-3.4-2.4-4.3-4.7-5.3-9-3.8-2.9,1-5.7,2.2-8.4,3.6-4.1,2.1-5.4,5.2-4.4,10,.3,1.5.8,3,1.2,4.5,3.5,10.4,7.1,20.9,10.6,31.3.8,2.3,1.8,4.6,2.5,6.4,4.7-.7,9-1.9,13.2-1.7,4.2.2,8.4,1.7,13.3,2.8ZM-918.7-381.8c-8.3-1.2-16.5-5.4-25.7-1.6,1.3,3.3,2.4,6.6,3.9,9.5,1.4,2.7,3.9,3.9,6.6,3.5,4.4-.6,8.7-1.9,12.5-4.8,2-1.5,3.4-3.3,2.7-6.7Z"/>
      <path class="cls-4" d="M-817.8-75.6c.6-2.8,1-6.1,2-9.2,18.4-61.6,36.8-123.2,55.2-184.8,22.9-76.4,45.7-152.7,68.6-229.1,7.4-24.6,15-49.1,22-73.9,5.1-18,21.7-26.3,37.5-20.7,57.3,20.5,114.8,40.6,172.1,60.9,40,14.1,79.9,28.3,119.9,42.3,15.5,5.4,21.7,19.9,20.9,30.9-.2,3.4-1,6.8-2,10.1-17,57.1-34.2,114.3-51.3,171.4-25.4,84.9-50.8,169.7-76.2,254.6-6.1,20.3-12.1,40.6-18.2,60.8-5.5,18.1-20.4,26.4-37.1,20.5-59.3-20.9-118.6-41.9-177.9-62.8-37.9-13.4-75.8-26.8-113.7-40.1-10.6-3.7-17.8-10.8-20.7-22.6-.6-2.5-.7-5.2-1.1-8.3ZM-577.4-226.3c2.1.5,2.8,2.5,3.7,4.2,3.4,6.7,7.8,12.5,13.8,16.6,3.2,2.2,6.9,4.3,10.6,5,14.3,2.6,27.6-5.8,33.2-20.3,2.1-5.4,3-11.1,3.1-17,.3-14.1-3-27.3-8-40.2-8.6-22.1-16.1-44.7-21.8-67.9-.5-2.1-1-4.1-1.7-6.8-6.3,7.2-13.1,12.7-20.3,17.6-7.9,5.5-16,10.6-24,16-8.3,5.7-16.7,11.2-24.8,17.3-7.4,5.6-13.9,12.3-19.5,19.9-6.7,9.1-9.3,19.2-7.2,30.8,2.5,13.9,10.5,23.2,23.2,25.9,8.3,1.7,16.4.6,23.8-4.3.7-.5,1.4-1.1,2.2-1.4,2-.9,3.6,0,3.5,2.4,0,1.5-.6,3-1.2,4.5-4.9,12.2-13,21.3-23,28.7-1.3.9-2.6,1.9-4,3,6.9,3.5,36.8,13.4,39.6,13.1-5.1-18.7-5.7-41-1.1-47.1ZM-497.6-80.1c-8.3-2.8-15.9-5.4-24-8.1-1.1,3.9-2.1,7.4-3.1,11.1,2.7,1,5,1.9,7.7,2.9-3.6,33.6-7.1,67-10.7,100.6,3.1,1.1,5.9,2.1,8.9,3.2,16.6-29.4,33-58.6,49.5-87.8,2.2.6,4.2,1.1,6.4,1.8,1-3.6,2.1-7.1,3.2-10.9-8.2-2.9-15.9-5.7-24-8-1.1,3.9-2,7.3-3,10.9,2.2.9,4,1.7,6.3,2.6-3.6,6.4-7,12.5-10.5,18.8-6.2-2.1-12.1-4.1-18.2-6.2.8-7.3,1.7-14.2,2.5-21.3,2.1.5,3.8.8,5.8,1.3,1-3.5,2-6.9,3.2-10.9ZM-619.9-558.2c-16.6,29.4-33,58.6-49.4,87.7-2.4-.6-4.3-1.1-6.5-1.7-1.1,3.7-2,7.1-3.1,11,8.2,2.7,15.9,5.4,24,8.1,1.1-4,2.1-7.4,3-11-2.2-1-4-1.8-6.2-2.8,3.6-6.4,7-12.5,10.4-18.7,6.2,2.1,11.9,4,18.2,6.1-.8,7.1-1.5,14.1-2.3,21.3-2.1-.4-3.9-.7-6-1.1-1,3.6-1.9,7-3,10.9,8.1,2.7,15.9,5.3,23.9,8,1.1-4,2.1-7.3,3.1-11-2.7-1.1-5.1-2.1-7.7-3.1,3.6-33.7,7.1-67.1,10.7-100.6-3.1-1.1-5.7-2-8.9-3.2ZM-665.7-387.8c1.3,2.2,2.1,3.5,3,4.8,4.3,6.5,9.6,8.7,15.7,6.6,5.2-1.8,8-5.8,9.3-11.4,1.6-7.4-.2-14.3-2.5-21.1-2.5-7.3-5.2-14.6-7.6-22-1.2-3.8-2.1-7.7-3.1-11.3-6.9,4.8-13.7,9.5-20.5,14.2-2.7,1.9-5.6,3.4-8,5.5-3.9,3.4-7.9,6.9-11.1,11-4.7,5.9-4.4,14.2-.2,20,3.7,5.1,11,6.4,17.4,3.2.8-.4,1.7-.7,3.3-1.3-1.8,8.3-7,12.8-12.7,17.5,6,2.1,11.4,3.9,17.5,6-1.9-7.3-2.8-14-.5-21.8ZM-487.9-84.8c5.2-3.7,10.4-7.6,15.7-11.3,3.4-2.4,7-4.5,10.4-6.8,5-3.4,9.6-7.5,13.3-12.7,4.2-5.9,4.1-14.1,0-19.7-3.8-5.1-10.7-6.6-16.9-3.6-1,.5-2,.9-3.9,1.8,1.8-8.5,6.9-13,12.7-17.5-5.9-2.3-11.4-4.1-17.4-6.1,1.7,7.4,2.9,14.1.5,21.3-2.2-2.8-3.8-5.4-5.8-7.5-4.8-5.2-11.7-5.6-16.9-1.3-2.9,2.4-4.6,5.6-5.3,9.4-1.3,6.5-.2,12.8,1.9,18.9,3.9,11.8,8,23.5,11.9,35.1Z"/>
      <path class="cls-4" d="M-534.9-590.6c-2.1-.7-3.9-1.2-5.7-1.8-30.2-10.6-60.4-21.3-90.7-31.9-11.2-3.9-22.5-3.7-33.6.9-11.1,4.6-18.3,13.1-21.8,25.6-6.6,23.7-13.4,47.4-20.2,71-.4,1.3-.9,2.6-1.4,4-8.9,1.1-17.7,2.1-26.4,3.2-13.8,1.6-27.6,3.2-41.4,4.8-3.6.4-6.2,2.4-8.1,5.6-2.1,3.7-3,7.8-2.6,12.2,2.3,23.6,4.7,47.1,7.1,70.7,2.2,21.8,4.3,43.7,6.5,65.5,1.5,15.3,2.9,30.6,4.6,45.9.3,2.6.1,4.9-.6,7.4-11.3,39.9-22.6,79.7-34,119.6-10.5,36.9-20.9,73.7-31.5,110.6-1.7,6-1.8,12-1,18.2.1.9.1,1.8.3,3.2-9.5-4.8-15.4-12.1-16.8-22.8-1.5-10.7-2.3-21.5-3.4-32.3-1.9-19.2-3.8-38.4-5.7-57.6-1.9-19.3-3.8-38.7-5.7-58-2.2-21.5-4.4-43-6.5-64.6-1.8-18.4-3.6-36.8-5.5-55.2-1.9-19-3.8-38.1-5.7-57.1-1.6-16.4-3.2-32.8-4.9-49.1-2.1-21.4-4.3-42.7-6.4-64.1-1.9-19.2-3.8-38.4-5.7-57.6-.6-6.4-1.3-12.8-1.9-19.2-1.4-16.8,9.3-31.4,24.8-33.3,19.5-2.4,39.1-4.5,58.6-6.8,19.8-2.3,39.6-4.7,59.4-7.1,20.1-2.4,40.2-4.7,60.3-7,17.4-2,34.7-4.2,52.1-6.2,19.8-2.3,39.6-4.6,59.5-6.9,6-.7,12.1-1.3,18.1-2.1,15.5-2.2,29.7,9.6,31.5,26.8,1.5,14.5,2.9,29,4.3,43.5,0,.4,0,.9-.2,2ZM-809-497.5c-.3-3.8-.6-7.2-.9-10.7-2.5.2-4.5.4-6.8.5-8.5-17.5-17.1-35.1-25.7-52.9,4.7-9.7,9.5-19.4,14-29.2,1.7-3.7,3.6-5.8,7.5-5.4.8,0,1.7-.4,2.9-.7-.3-3.4-.6-6.8-.9-10.4-9.1,1-17.6,2-26.4,3,.4,3.9.8,7.1,1.1,10.2,2.1.1,3.7.2,5.5.3-3.2,8-18.9,36.7-21.5,39.1-1.1-12.3-2.1-24.4-3.2-36.6,2.7-.5,4.8-.8,7.3-1.3-.3-3.6-.6-6.9-.9-10.5-9,1-17.4,1.9-26.3,2.8.3,3.7.6,7.1.9,10.5,3.1-.2,5.6-.4,8.6-.7,2.6,29.2,5.2,58,7.8,87-3.1.4-5.6.8-8.5,1.2.4,3.7.8,7,1.2,10.5,8.9-1,17.3-1.9,25.7-2.8.4-5.4.2-7.3-1.1-10.5-2.2.1-4.4.2-6.9.4-.8-8.5-1.6-16.4-2.3-24.4,0-1.1.4-2.4.8-3.5,1.1-2.4,2.3-4.7,3.5-7,1.4-2.8,2.9-5.6,4.7-9.1,7.3,14,14.2,27.3,21.3,40.9-3.2.5-5.9,1-8.7,1.5.4,3.7.8,6.9,1.1,10.4,8.8-.9,17.1-1.8,26.2-2.7ZM-839.4-486.8c-6.6,16-15.1,29.8-24.5,43.2,11.5,11.8,22.9,23.3,32.5,37.5,6.9-15.8,14.9-30.2,24.6-43.9-12-11.1-23.2-22.6-32.7-36.8Z"/>
      <path class="cls-4" d="M-751.5.9c-3.3,1.4-6.7,2.8-10,4.2-16,6.7-32.2,13.1-48.1,20.1-13.8,6.1-29.6-1.1-35.2-17.2-17-48.9-34.4-97.6-51.6-146.3-16-45.1-32-90.2-47.9-135.3-14.5-41-29-82-43.4-123-4.8-13.6-9.7-27.2-14.4-40.9-3.8-11-2.1-21.1,5.3-29.7,2.5-2.9,5.8-5.4,9.2-6.9,22.4-9.6,45-18.9,67.5-28.3.7-.3,1.4-.4,2.6-.7,4.5,37.3,8.9,74.4,13.4,111.5-5.9,1.1-6.3.7-8.1-4.4-5.8-16.7-11.7-33.4-17.7-50.1-1-2.7-2.3-5.4-3.9-7.8-4.1-6-9.6-8.8-16.3-6.6-4.9,1.6-9.9,3.6-14.4,6.3-5.9,3.5-7.8,9.8-7.3,16.9.2,2.8,1,5.5,1.9,8.2,3.9,11.7,7.9,23.3,11.9,34.9.5,1.6,1.1,3.2,1.8,5.1-1.8,1.6-3.5,3.2-5.4,4.9,1,3.1,2,6.1,3.1,9.6,2.2-1.6,3.9-2.9,5.9-4.4,1.2,2.9,2.1,5.3,3.1,7.7,3.6,8.4,11.4,12.6,19.7,10.4,3.4-.9,6.7-2,9.9-3.5,6.2-2.9,10.6-7.6,11.4-15.6h5.8c1.1,9.2,2.2,18.1,3.4,27.7-4.9-1-9.3-1.3-12.9,2.4-3.6,3.8-4,8.5-3,14.4-1.6-1.6-2.6-2.6-3.6-3.5-3.8-3.3-7.9-4.4-12.5-2.1-4.5,2.3-6.8,6.1-7,11.5-.1,3.9.7,7.6,2.8,10.7,2.6,3.7,5.2,7.8,8.7,10.3,9.8,7.1,20,13.5,30.5,20.5.8-4.8,1.5-9.1,2.2-13.3.2,0,.4,0,.6,0,.3,1.7.7,3.3.9,5,2.1,17.4,4.2,34.8,6.2,52.3,2.4,20.4,4.9,40.8,7.3,61.1,2.2,18.7,4.5,37.3,6.7,56,2.6,21.9,5.2,43.9,7.9,65.8,2.2,17.8,17.2,33.1,36,29,.4,0,.9-.1,1.3-.2,2.2-.6,3.8.2,5.3,2.1,3.3,4.1,7.5,6.7,12.3,8.5,18.2,6.6,36.4,13.4,54.5,20.1,1.3.5,2.6,1,4,1.6,0,.3,0,.7,0,1Z"/>
      <path class="cls-4" d="M-921.8-393.1c-4.9-1.1-9.1-2.6-13.3-2.8-4.2-.2-8.5,1-13.2,1.7-.7-1.8-1.7-4.1-2.5-6.4-3.6-10.4-7.1-20.8-10.6-31.3-.5-1.5-.9-3-1.2-4.5-.9-4.8.4-7.9,4.4-10,2.7-1.4,5.5-2.7,8.4-3.6,4.4-1.5,6.7-.4,9,3.8.6,1.1,1.1,2.2,1.5,3.4,5.5,15.3,11,30.6,16.5,45.9.4,1,.5,2,.9,3.7Z"/>
      <path class="cls-4" d="M-918.7-381.8c.7,3.3-.7,5.2-2.7,6.7-3.8,2.8-8.1,4.1-12.5,4.8-2.7.4-5.3-.8-6.6-3.5-1.5-2.9-2.6-6.2-3.9-9.5,9.3-3.8,17.4.4,25.7,1.6Z"/>
      <path class="cls-3" d="M-577.4-226.3c-4.6,6.1-4,28.4,1.1,47.1-2.8.2-32.7-9.6-39.6-13.1,1.4-1.1,2.7-2,4-3,10-7.4,18.1-16.5,23-28.7.6-1.4,1.1-2.9,1.2-4.5.1-2.3-1.5-3.3-3.5-2.4-.8.4-1.5.9-2.2,1.4-7.4,4.9-15.5,6-23.8,4.3-12.7-2.7-20.7-12-23.2-25.9-2.1-11.6.5-21.7,7.2-30.8,5.7-7.6,12.2-14.3,19.5-19.9,8.1-6.1,16.4-11.6,24.8-17.3,8-5.4,16.1-10.5,24-16,7.2-4.9,14-10.4,20.3-17.6.7,2.7,1.2,4.8,1.7,6.8,5.7,23.2,13.2,45.8,21.8,67.9,5,12.8,8.3,26.1,8,40.2-.1,5.8-1,11.5-3.1,17-5.6,14.5-18.9,22.9-33.2,20.3-3.7-.7-7.4-2.7-10.6-5-5.9-4.1-10.4-9.9-13.8-16.6-.9-1.8-1.6-3.7-3.7-4.2Z"/>
      <path class="cls-3" d="M-497.6-80.1c-1.2,4-2.2,7.4-3.2,10.9-2-.5-3.7-.8-5.8-1.3-.8,7.1-1.6,14.1-2.5,21.3,6.1,2.1,12,4.1,18.2,6.2,3.5-6.2,6.9-12.3,10.5-18.8-2.3-1-4.1-1.7-6.3-2.6,1-3.5,1.9-6.9,3-10.9,8.1,2.3,15.8,5.1,24,8-1.1,3.8-2.1,7.3-3.2,10.9-2.3-.6-4.2-1.1-6.4-1.8-16.4,29.2-32.9,58.3-49.5,87.8-3-1.1-5.8-2.1-8.9-3.2,3.6-33.7,7.1-67.1,10.7-100.6-2.7-1-5-1.9-7.7-2.9,1-3.7,2-7.2,3.1-11.1,8.1,2.7,15.7,5.3,24,8.1ZM-496.6-32.5c-4.8-1.6-9-3-13.7-4.6-1.4,11.8-2.7,23.1-4,34.5.3.1.5.2.8.3,5.5-9.8,11-19.7,16.9-30.2Z"/>
      <path class="cls-3" d="M-619.9-558.2c3.3,1.2,5.9,2.1,8.9,3.2-3.6,33.5-7.1,66.9-10.7,100.6,2.6,1.1,5,2,7.7,3.1-1,3.7-2,7.1-3.1,11-8-2.7-15.8-5.3-23.9-8,1.1-3.9,2-7.3,3-10.9,2.1.4,3.9.7,6,1.1.8-7.2,1.5-14.2,2.3-21.3-6.2-2.1-12-4-18.2-6.1-3.4,6.2-6.8,12.3-10.4,18.7,2.2,1,4.1,1.8,6.2,2.8-1,3.5-1.9,6.9-3,11-8.1-2.7-15.8-5.3-24-8.1,1.1-3.9,2.1-7.3,3.1-11,2.1.6,4,1,6.5,1.7,16.4-29.1,32.9-58.3,49.4-87.7ZM-624.3-525.8c-.3-.1-.5-.2-.8-.3-5.5,9.9-11.1,19.8-16.9,30.2,4.8,1.6,9,3.1,13.7,4.7,1.3-11.8,2.6-23.2,3.9-34.5Z"/>
      <path class="cls-3" d="M-665.7-387.8c-2.3,7.8-1.4,14.5.5,21.8-6.1-2.1-11.5-4-17.5-6,5.7-4.7,10.9-9.2,12.7-17.5-1.6.6-2.5.9-3.3,1.3-6.4,3.2-13.7,1.9-17.4-3.2-4.2-5.8-4.5-14.1.2-20,3.2-4.1,7.2-7.6,11.1-11,2.4-2.2,5.4-3.7,8-5.5,6.8-4.7,13.6-9.4,20.5-14.2,1,3.6,1.9,7.5,3.1,11.3,2.4,7.4,5.1,14.7,7.6,22,2.3,6.8,4.1,13.7,2.5,21.1-1.2,5.6-4.1,9.6-9.3,11.4-6.1,2.1-11.4-.1-15.7-6.6-.9-1.3-1.7-2.7-3-4.8Z"/>
      <path class="cls-3" d="M-487.9-84.8c-4-11.7-8-23.4-11.9-35.1-2-6.1-3.1-12.4-1.9-18.9.7-3.8,2.5-7,5.3-9.4,5.3-4.3,12.1-3.9,16.9,1.3,2,2.2,3.7,4.7,5.8,7.5,2.4-7.2,1.2-13.8-.5-21.3,6,1.9,11.5,3.8,17.4,6.1-5.8,4.6-10.9,9.1-12.7,17.5,1.9-.9,2.9-1.3,3.9-1.8,6.2-3,13.2-1.5,16.9,3.6,4.1,5.6,4.1,13.7,0,19.7-3.6,5.2-8.2,9.2-13.3,12.7-3.4,2.3-7,4.4-10.4,6.8-5.3,3.7-10.5,7.6-15.7,11.3Z"/>
      <path class="cls-3" d="M-809-497.5c-9.1.9-17.4,1.8-26.2,2.7-.4-3.5-.7-6.7-1.1-10.4,2.8-.5,5.5-.9,8.7-1.5-7.1-13.6-14-27-21.3-40.9-1.8,3.4-3.2,6.2-4.7,9.1-1.2,2.3-2.4,4.6-3.5,7-.5,1.1-.9,2.4-.8,3.5.7,8,1.5,15.9,2.3,24.4,2.5-.1,4.7-.3,6.9-.4,1.3,3.3,1.5,5.2,1.1,10.5-8.3.9-16.8,1.8-25.7,2.8-.4-3.6-.8-6.9-1.2-10.5,2.9-.4,5.4-.8,8.5-1.2-2.6-29.1-5.2-57.8-7.8-87-2.9.2-5.5.4-8.6.7-.3-3.5-.6-6.8-.9-10.5,8.9-1,17.3-1.9,26.3-2.8.3,3.6.6,6.9.9,10.5-2.5.4-4.6.8-7.3,1.3,1.1,12.2,2.1,24.3,3.2,36.6,2.6-2.4,18.3-31,21.5-39.1-1.7,0-3.4-.2-5.5-.3-.3-3.1-.7-6.3-1.1-10.2,8.8-1,17.3-1.9,26.4-3,.3,3.7.6,7,.9,10.4-1.3.3-2.1.8-2.9.7-3.9-.4-5.9,1.7-7.5,5.4-4.5,9.8-9.3,19.5-14,29.2,8.6,17.8,17.2,35.4,25.7,52.9,2.3-.2,4.3-.3,6.8-.5.3,3.6.6,6.9.9,10.7Z"/>
      <path class="cls-3" d="M-839.4-486.8c9.5,14.2,20.7,25.7,32.7,36.8-9.7,13.7-17.8,28.1-24.6,43.9-9.6-14.1-21-25.7-32.5-37.5,9.4-13.4,17.9-27.2,24.5-43.2Z"/>
      <path class="cls-4" d="M-496.6-32.5c-5.9,10.6-11.4,20.4-16.9,30.2-.3-.1-.5-.2-.8-.3,1.3-11.4,2.6-22.7,4-34.5,4.7,1.6,8.9,3,13.7,4.6Z"/>
      <path class="cls-4" d="M-624.3-525.8c-1.3,11.4-2.6,22.7-3.9,34.5-4.7-1.6-8.9-3-13.7-4.7,5.8-10.4,11.3-20.3,16.9-30.2.3.1.5.2.8.3Z"/>
    </g>
    <path class="cls-1" d="M8.7,14.1h0Z"/>
    <path class="cls-1" d="M-789.9,40.4c-4.2,1.6-7.5,3.2-9.7,4.3-5.4,2.7-10.6,5.8-15.6,7.5-2.4.8-5,1.5-5,1.5-1.7.4-2.7.7-4.1.9-1.1.2-3.4.4-6.3.2-2.3-.2-4-.6-5.7-1-1.3-.3-2.2-.5-3.4-1-1.4-.5-1.5-.7-4.6-2.3-2.6-1.3-3-1.4-4.1-2.2-1.2-.8-2-1.6-2.4-2-.5-.5-1.2-1.2-2.4-3-.7-1.1-1.6-2.3-2.6-4.1-1.4-2.7-2.5-5.5-5.8-14.2-1.7-4.4-2.3-6.1-3-8.2-.3-.9-1.4-4.2-1.4-4.2h0s-.2-.5-.6-1.5l76.8,29.1Z"/>
    <path class="cls-1" d="M-1022-431c-.9-1.6-2.1-4.1-3.1-7.2-1-3.2-1.2-5.7-1.6-9-.5-4.4-.7-6.9-.5-10.4.1-1.6.6-6.8,3.2-13.1,1.3-3.1,2.3-5.7,4.7-8.6.9-1,2.9-3.3,9-6.8,5-2.9,5.9-2.6,13.5-6.3,6.6-3.2,7.7-4.2,13.3-6.5,2.1-.9,4.7-1.4,8.3-3.2,2.4-1.2,4.2-2.3,5.4-3.2-8.8,12.5-17.6,25-26.5,37.5-1.5,2.1-2.9,4.1-4.4,6.2-7.2,10.2-14.4,20.4-21.6,30.5Z"/>
    <path class="cls-1" d="M-847.1,5.3l9.9,16.4-9.9-16.4Z"/>
  </g>
  <polyline class="cls-1" points="-881.1 -29.2 -861.4 -36.2 -871.3 -65.5 -879.2 -87.6 -1004.7 -440.4 -1008.7 -449.4 -1022.3 -428.6"/>
  <polyline class="cls-1" points="-1004.9 -446.2 -1003.2 -456.4 -1008.7 -449.4"/>
  <polyline class="cls-1" points="-996.8 -411.3 -1010.1 -465.1 -1026.3 -444.1 -1003.2 -384.5 -1009.9 -420.4 -1025 -438.2"/>
  <path class="cls-1" d="M-1037.1-406.7"/>
  <polyline class="cls-1" points="-1009.9 -420.4 -1020.7 -426.1 -1026.6 -447.2 -1020.8 -424.8"/>
  <polyline class="cls-1" points="-1018.2 -427.8 -1023.9 -436.9 -1021.1 -440.7"/>
  <polyline class="cls-1" points="-1019.1 -427.8 -1022.3 -433.1 -1022.1 -429.8"/>
  <line class="cls-1" x1="-1016" y1="-427.7" x2="-1023.4" y2="-437"/>
  <polyline class="cls-1" points="-1021.1 -428.3 -1022.3 -428.9 -1024.4 -435.9 -1021.6 -431.5"/>
  <polyline class="cls-1" points="-1021.3 -433.5 -1024.4 -435.9 -1023.9 -435.1 -1024.7 -438.2"/>
  <polyline class="cls-1" points="-992.8 -473.1 -972.6 -481.1 -999.8 -483 -1013.5 -484 -996.4 -491.9 -920.5 -527.2 -898 -534.8 -896 -510.3"/>
  <line class="cls-1" x1="-975.2" y1="-487.1" x2="-972.6" y2="-481.1"/>
  <text class="cls-2" transform="translate(-1016 -455.1)"><tspan x="0" y="0">.</tspan></text>
  <polygon class="cls-1" points="-956.9 -487.3 -995 -470.4 -999.9 -468.2 -1007 -484.2 -964 -503.2 -956.9 -487.3"/>
  <polyline class="cls-1" points="-993.2 -484.1 -982.5 -481.8 -978.7 -485.7"/>
  <rect class="cls-1" x="-1009.6" y="-467.8" width="5.3" height="26.9"/>
  <path class="cls-1" d="M-995.1-469c.4-1.9,1.6-3.3,2.8-3.3.2,0,.6,0,1,.2"/>
  <path class="cls-1" d="M-957.5-457.6c-1.1.4-1.9.8-2.4,1.1-.2.1-.1,0-1.4.8-1.1.6-1.7,1-1.9,1.1-1,.6-.8.5-1.2.7-1,.6-1.6.9-2.3,1.5-.5.4-.8.7-1,.9-.3.3-.7.7-1.3,1.7-.8,1.1-1.2,1.6-1.5,2.4-.5,1-.7,1.8-.9,2.6-.2.9-.3,1.6-.4,2.1,0,.2-.2,1.1-.2,2.5,0,1.2-.1,2.1,0,3.2,0,.3.1.9.4,2.2.3,1.5.4,2.3.5,2.6.2,1.1.5,1.6,1.2,4,0,0,.5,1.6,1.2,3.7.1.4.2.7.4,1.1,0,0,.1.3.2.5,0,.1,0,.3,0,.4"/>
  <path class="cls-1" d="M-965.2-425.9"/>
  <path class="cls-1" d="M-960.9-424.5"/>
  <polyline class="cls-1" points="-972.2 -438.2 -962.9 -439.9 -958.8 -424.2 -967.3 -420.7"/>
  <polyline class="cls-1" points="-966.7 -418.4 -957.8 -421.4 -948.6 -394.6 -956.6 -389 -966 -416.6 -957.3 -419.9 -959.6 -427.3 -968.5 -423.7"/>
  <line class="cls-1" x1="-950" y1="-416.6" x2="-948.6" y2="-412.3"/>
  <polyline class="cls-1" points="-967.7 -421.2 -958.8 -424.8 -956.9 -418.9"/>
  <path class="cls-1" d="M-978.8-426.1"/>
  <path class="cls-1" d="M-892.6-653.4c-4.6.6-8.2,1.8-10.7,2.8-3,1.2-6.2,2.6-9.3,5.6-.3.3-1,1-2.3,2.5-3.2,3.6-4.8,5.4-5.6,6.5-1,1.4-2,3.7-3.9,8.3-.8,1.9-1.4,3.2-2.1,5.1-1.1,2.9-1.9,5.1-2.5,8.1-.7,3.5-.9,6.2-.9,7.9,0,.9-.1,3.7.2,7.4.2,2.1.3,2.4.9,6.7.3,2.4.4,3.4.7,5.6.7,5.4.9,6.6,1.6,11.6.6,4.2.4,3.3,1.4,11.8.4,3.6.8,6.7,1.4,11.1.9,7.2.9,7.3,1.2,9.3.6,5.2.4,5.6.9,9,.4,2.7.7,3.6,1.1,6.9.3,2.6.5,4.4.5,5.4.1,1.8.2,3.4.2,4.6"/>
  <path class="cls-1" d="M-559.8-690.8c1.1,0,2.5,0,4.1,0,.9,0,3,.2,5.6.6,2.7.4,4.7,1,5.3,1.2,1.1.3,2.9.8,5,1.8,1.5.7,3.3,1.7,6.8,3.8,2.8,1.7,3.5,2.2,4.4,2.9,1.3,1.1,2.1,2,2.9,2.9,1.4,1.6,2.3,2.9,3.8,5,1.3,1.9,2,2.8,2.6,4.1.8,1.5,1.2,2.7,1.5,3.5.7,1.9,1,3.4,1.2,4.4.2,1.1.5,2.2.6,3.8.1,1.8,0,2.4,0,4.1,0,1.7.1,2.1.6,6.5.4,3.9.3,3.5.6,5.9.6,5.1.9,5.7,1.2,8.5.4,4-.2,4,0,8.8.2,5.9,1,6.3,1.5,13.5.2,3.1,0,2.9.3,7.9.2,3.8.3,5.7.6,8.5.4,4,.7,5.2.9,8.8,0,2.2,0,3.7,0,4.4-.1,2.7-.5,3.6-.6,5.9,0,1.2,0,3,.3,5.3"/>
  <path class="cls-1" d="M-684.5-602.5c.5-1.5,1.3-3.4,2.4-5.4.9-1.7,1.7-2.9,2.4-3.9,1.9-2.8,2.9-4.3,4.6-5.4,1.2-.8,1.2-.4,3-1.5,2-1.2,2.3-1.8,3.9-2.8,1-.6,1.1-.5,4.6-2,4.6-1.9,4.4-2,5.9-2.4,1.3-.3,2.8-.4,5.7-.7,2.6-.2,4.5-.2,5.2-.2,2.1,0,3.9,0,6.1.2,2.3.3,4.1.7,5.7,1.1,5.1,1.3,9,2.9,13.3,4.6,4.7,1.8,3,1,12.2,4.4,7.9,2.9,8.3,3.2,12.8,4.8,10.2,3.7,10.5,3.1,20,6.5,10.1,3.6,9.2,4,17.2,6.5,5.9,1.9,8.6,2.4,15.2,4.8,3.8,1.4,5,2,9.8,3.9,4,1.6,10.2,4.1,17.4,6.5,11,3.7,11.9,3.2,18.9,6.1,1.5.6,4.9,2,9.8,3.7,1,.3,3.2.8,6.1,2,1.8.7,1.8.9,3.5,1.5,1,.4,1.3.4,4.6,1.3,2.1.6,3.2.9,4.6,1.3,1.4.4,2.5.8,3.3,1.1"/>
</svg>