<?xml version="1.0" encoding="UTF-8"?>
<svg version="1.1" xmlns="http://www.w3.org/2000/svg" width="732" height="538">
<path d="M0 0 C241.56 0 483.12 0 732 0 C732 177.54 732 355.08 732 538 C490.44 538 248.88 538 0 538 C0 360.46 0 182.92 0 0 Z " fill="#D1D5DB" transform="translate(0,0)"/>
<path d="M0 0 C24.37812273 -0.10320677 48.75103127 0.00720423 73.12731934 0.31838989 C76.15031969 0.35681307 79.1733211 0.39105894 82.19641113 0.42160034 C85.82466687 0.45861465 89.4526949 0.50501429 93.08075142 0.55800056 C95.05579285 0.58483786 97.03094539 0.6030808 99.00608826 0.62095642 C110.4325308 0.80608723 121.54471616 2.18302405 132.7421875 4.47265625 C135.46143731 4.91282259 138.07792003 5.17280415 140.8203125 5.37109375 C153.65644774 6.46734754 161.10947086 9.55352756 170.35961914 18.53173828 C172.08728437 20.07812594 173.88785422 21.28749108 175.83203125 22.546875 C178.21221509 24.20969787 178.90132597 24.76303561 180.05078125 27.5234375 C180.13714844 28.46445313 180.22351563 29.40546875 180.3125 30.375 C180.43238281 31.51324219 180.55226563 32.65148437 180.67578125 33.82421875 C180.78512682 35.21604644 180.89306416 36.6079851 181 38 C181.15826476 39.77751318 181.31856481 41.55484585 181.48046875 43.33203125 C181.83458081 47.28138294 182.17016133 51.23182416 182.49609375 55.18359375 C182.93374779 60.38319787 183.46888294 65.56611423 184.0625 70.75 C184.14612793 71.48863281 184.22975586 72.22726563 184.31591797 72.98828125 C184.6575246 76.0015679 185.00167168 79.0145568 185.34765625 82.02734375 C185.62461504 84.68380763 185.82285599 87.33513801 186 90 C186.10054687 90.99515625 186.20109375 91.9903125 186.3046875 93.015625 C187.03100248 105.74066349 183.17912392 117.69810687 179.84570312 129.86132812 C179.14618513 132.45746072 178.49718194 135.05297623 177.890625 137.671875 C176.12629068 144.88397844 174.10370318 149.58506845 168 154 C167.13890625 154.63164062 166.2778125 155.26328125 165.390625 155.9140625 C161.13943177 158.52942792 156.73946946 160.37363441 152.125 162.25 C151.24585938 162.61351562 150.36671875 162.97703125 149.4609375 163.3515625 C147.30959379 164.24016099 145.15600499 165.12278624 143 166 C143.53890869 166.1451001 144.07781738 166.2902002 144.63305664 166.43969727 C147.11685758 167.1232951 149.58901419 167.84250966 152.0625 168.5625 C152.91005859 168.79001953 153.75761719 169.01753906 154.63085938 169.25195312 C163.48387785 171.88393159 168.2524201 176.98223827 172.61914062 184.9609375 C172.97169922 185.63382813 173.32425781 186.30671875 173.6875 187 C174.420407 188.35425647 175.15347867 189.70842384 175.88671875 191.0625 C176.19826904 191.65160156 176.50981934 192.24070312 176.83081055 192.84765625 C177.82138799 194.67119577 178.91976534 196.43552984 180.03930664 198.18286133 C182.40458689 202.32537348 182.96488929 206.32075102 183.484375 211.01171875 C183.58969543 211.86119583 183.69501587 212.71067291 183.80352783 213.58589172 C184.02231704 215.37596381 184.23368338 217.16695724 184.43798828 218.95874023 C184.74735094 221.66433216 185.08059065 224.36613316 185.41796875 227.06835938 C185.62902805 228.82014153 185.83870709 230.57209065 186.046875 232.32421875 C186.14369568 233.11527512 186.24051636 233.90633148 186.340271 234.72135925 C188.20180289 251.31700851 186.41674682 268.30387316 185.45874023 284.92545414 C185.19815192 289.45091175 184.95196618 293.97614463 184.73974609 298.50415039 C184.53234118 302.92279407 184.28861525 307.33808933 184.01992798 311.75341606 C183.9244632 313.42108596 183.84144405 315.08952209 183.77182007 316.75847054 C183.36008847 326.3840141 182.43894944 333.15126789 176.24560547 340.96896362 C172.10011725 344.71834769 167.34938414 345.86749525 162 347.0625 C160.9584375 347.32998047 159.916875 347.59746094 158.84375 347.87304688 C156.81136061 348.39012574 154.77386595 348.88761033 152.73144531 349.36352539 C150.48725152 349.88646186 148.27051412 350.46072403 146.046875 351.0625 C140.526074 352.44483238 134.87828638 353.13850153 129.25 353.9375 C127.02599673 354.25880368 124.8020397 354.58042761 122.578125 354.90234375 C121.36713135 355.07008301 120.1561377 355.23782227 118.90844727 355.41064453 C116.22734548 355.81492835 113.6039158 356.26258605 110.94897461 356.78857422 C94.28824172 359.92362414 77.42650189 359.37970349 60.54718018 359.26428223 C57.24269056 359.24528764 53.93825828 359.24113806 50.63372135 359.2375679 C46.60084259 359.23233329 42.56800936 359.21789135 38.53515625 359.203125 C37.80201769 359.20124428 37.06887913 359.19936356 36.31352425 359.19742584 C27.51064715 359.16823268 18.73872823 358.92933209 9.9462738 358.4899292 C8.50382962 358.41947671 8.50382962 358.41947671 7.03224516 358.34760094 C4.68810159 358.23293616 2.34402559 358.11704762 0 358 C-0.2649486 331.55035278 -0.52583908 305.10066798 -0.78230286 278.65093708 C-0.90155627 266.36110408 -1.02200662 254.07128525 -1.14550781 241.78149414 C-2.68574873 88.28280628 -2.68574873 88.28280628 -1.07287598 36.56787109 C-0.94464582 32.37944904 -0.82854941 28.19068437 -0.7109375 24.00195312 C-0.48473915 16.00095988 -0.24704085 8.00038005 0 0 Z " fill="#010101" transform="translate(81,84)"/>
<path d="M0 0 C2.3144628 0.35291542 4.63101914 0.68794775 6.94848633 1.02050781 C8.44798524 1.2408439 9.94734031 1.46216161 11.4465332 1.68457031 C12.46542381 1.8331398 12.46542381 1.8331398 13.50489807 1.98471069 C20.73054972 3.09829997 26.11714279 4.28180718 31.47387695 9.41113281 C32.3040332 10.19359375 33.13418945 10.97605469 33.98950195 11.78222656 C34.7268457 12.50539063 35.46418945 13.22855469 36.22387695 13.97363281 C36.7461084 14.43237793 37.26833984 14.89112305 37.80639648 15.36376953 C39.48457217 17.26971002 39.7625389 18.43195506 40.13793945 20.92285156 C40.25911133 21.68919922 40.3802832 22.45554687 40.50512695 23.24511719 C40.61856445 24.04240234 40.73200195 24.8396875 40.84887695 25.66113281 C40.97004883 26.43908203 41.0912207 27.21703125 41.21606445 28.01855469 C41.57154738 30.33498965 41.90846692 32.6513757 42.22387695 34.97363281 C42.39324768 36.16086945 42.56261841 37.34810608 42.73712158 38.57131958 C43.29022765 43.03391349 43.36475162 47.43142305 43.35327148 51.92358398 C43.35589996 53.21144051 43.35589996 53.21144051 43.35858154 54.52531433 C43.36296764 57.35576426 43.36006589 60.18615102 43.35668945 63.01660156 C43.35736519 65.02403271 43.35833745 67.03146378 43.35958862 69.03889465 C43.36106272 73.26120782 43.35892681 77.48349984 43.35424805 81.70581055 C43.34865616 86.99882699 43.3518513 92.29179195 43.35770035 97.58480644 C43.38140107 123.07068946 43.03545456 148.49911362 42.22387695 173.97363281 C31.99387695 179.25363281 21.76387695 184.53363281 11.22387695 189.97363281 C14.79152978 192.82775508 18.07924401 195.23306421 21.92700195 197.61035156 C22.98918945 198.26970703 24.05137695 198.9290625 25.14575195 199.60839844 C26.2440332 200.28580078 27.34231445 200.96320313 28.47387695 201.66113281 C30.66729626 203.01805714 32.86004289 204.37606963 35.05200195 205.73535156 C36.50461426 206.63193481 36.50461426 206.63193481 37.98657227 207.54663086 C40.22387695 208.97363281 40.22387695 208.97363281 41.22387695 209.97363281 C41.31748739 211.57966536 41.3412484 213.18983146 41.33691406 214.79858398 C41.33599258 215.82744217 41.33507111 216.85630035 41.3341217 217.91633606 C41.32738937 219.04254868 41.32065704 220.16876129 41.3137207 221.32910156 C41.30803322 223.07866402 41.30803322 223.07866402 41.30223083 224.86357117 C41.2129171 244.81489116 40.77234319 264.76247443 40.35180664 284.70898438 C40.2577243 289.20753908 40.17796462 293.70603908 40.10868835 298.20503235 C39.52872604 334.369502 39.52872604 334.369502 33.07543945 342.77050781 C30.26139894 345.15356915 27.35339049 347.02314531 24.22387695 348.97363281 C22.08741366 350.55589299 19.98681564 352.18024738 17.88305664 353.80566406 C15.80927018 355.40766645 13.72837651 356.9975584 11.63012695 358.56738281 C11.04553711 359.00759766 10.46094727 359.4478125 9.85864258 359.90136719 C6.86757641 361.8632493 3.97344493 362.16597622 0.49731445 362.43847656 C-0.44337891 362.51533691 -1.38407227 362.59219727 -2.35327148 362.67138672 C-3.3590625 362.75050293 -4.36485352 362.82961914 -5.40112305 362.91113281 C-14.84060876 363.67554432 -14.84060876 363.67554432 -24.24145508 364.80444336 C-40.85765918 366.9440593 -56.85932628 365.93506875 -73.40112305 363.66113281 C-75.14704675 363.4304314 -76.89314336 363.20103506 -78.6394043 362.97290039 C-82.08437982 362.52208695 -85.52862246 362.06622472 -88.97241211 361.60644531 C-95.56651166 360.73121236 -102.17007605 359.94077934 -108.77612305 359.16113281 C-110.58554393 358.94640136 -112.39495087 358.73155241 -114.2043457 358.51660156 C-115.07064606 358.41371826 -115.93694641 358.31083496 -116.82949829 358.20483398 C-117.79307755 358.0903894 -117.79307755 358.0903894 -118.77612305 357.97363281 C-120.18583483 342.32265239 -121.43363439 326.66350647 -122.58105469 310.99121094 C-122.84044331 307.44877371 -123.10204916 303.9065054 -123.36401367 300.36425781 C-123.77253069 294.8322867 -124.17351734 289.29980324 -124.57183838 283.76708984 C-124.74710442 281.37044323 -124.93069377 278.97471847 -125.11938477 276.57910156 C-125.81655267 267.2965989 -125.77612305 258.36588142 -125.77612305 248.97363281 C-91.12612305 249.46863281 -91.12612305 249.46863281 -55.77612305 249.97363281 C-55.77612305 260.53363281 -55.77612305 271.09363281 -55.77612305 281.97363281 C-51.85737305 281.60238281 -47.93862305 281.23113281 -43.90112305 280.84863281 C-42.6869873 280.74663574 -41.47285156 280.64463867 -40.22192383 280.53955078 C-32.99564509 279.75988881 -25.88008889 278.56133479 -20.77612305 272.97363281 C-19.53498851 269.05692518 -19.78230161 265.47421494 -20.08862305 261.41113281 C-20.15243164 259.75525146 -20.15243164 259.75525146 -20.2175293 258.06591797 C-20.35680847 254.69758658 -20.56263324 251.33797225 -20.77612305 247.97363281 C-20.86815116 246.04546999 -20.95568059 244.11708502 -21.0378418 242.18847656 C-21.14840931 239.62115853 -21.26364487 237.05603693 -21.41796875 234.4909668 C-21.72310232 229.37423491 -21.80377325 224.2750716 -21.78979492 219.14990234 C-21.78880798 218.45784195 -21.78782104 217.76578156 -21.7868042 217.05274963 C-21.78424687 215.35970888 -21.78032426 213.66667028 -21.77612305 211.97363281 C-22.62581161 211.97585342 -23.47550018 211.97807404 -24.35093689 211.98036194 C-32.3414903 212.00036295 -40.33203535 212.01560597 -48.32260799 212.02544498 C-52.43106589 212.03067328 -56.53950318 212.03776994 -60.64794922 212.04907227 C-64.60959133 212.05990307 -68.57121357 212.06591005 -72.53286934 212.06851006 C-74.04760616 212.07036396 -75.56234183 212.07398391 -77.07707024 212.07936287 C-79.19154117 212.08657588 -81.30592899 212.08762365 -83.42041016 212.0871582 C-85.22909828 212.09048912 -85.22909828 212.09048912 -87.07432556 212.09388733 C-89.77612305 211.97363281 -89.77612305 211.97363281 -90.77612305 210.97363281 C-90.9574903 209.40681828 -91.07454225 207.83249094 -91.16503906 206.2578125 C-91.22502579 205.25296814 -91.28501251 204.24812378 -91.34681702 203.21282959 C-91.40727707 202.1181134 -91.46773712 201.02339722 -91.5300293 199.89550781 C-91.59520248 198.77678284 -91.66037567 197.65805786 -91.7275238 196.50543213 C-91.86496565 194.13151372 -92.00015665 191.75746411 -92.13330078 189.38330078 C-92.33697729 185.75296679 -92.54712613 182.12305458 -92.75854492 178.49316406 C-92.8910876 176.18980055 -93.02326104 173.88641576 -93.1550293 171.58300781 C-93.21751358 170.49638855 -93.27999786 169.40976929 -93.34437561 168.29022217 C-93.40121017 167.27276917 -93.45804474 166.25531616 -93.51660156 165.20703125 C-93.56688004 164.31514099 -93.61715851 163.42325073 -93.66896057 162.5043335 C-93.77517195 159.99609354 -93.77612305 157.48412052 -93.77612305 154.97363281 C-70.67612305 154.97363281 -47.57612305 154.97363281 -23.77612305 154.97363281 C-24.10612305 145.73363281 -24.43612305 136.49363281 -24.77612305 126.97363281 C-24.9366295 120.08746009 -25.09184685 113.20296321 -25.21893311 106.31637573 C-25.2783179 103.29963455 -25.34836248 100.2832921 -25.42114258 97.2668457 C-25.62352861 88.74720625 -25.81932505 80.24529278 -25.67456055 71.72363281 C-25.53616129 56.64851999 -28.64059204 46.16219784 -36.4284668 33.21875 C-38.22012886 30.23394487 -39.83532274 27.17518098 -41.46362305 24.09863281 C-42.22674805 22.73738281 -42.98987305 21.37613281 -43.77612305 19.97363281 C-50.70612305 19.97363281 -57.63612305 19.97363281 -64.77612305 19.97363281 C-65.75252867 32.99237446 -65.93323298 45.92172304 -65.90112305 58.97363281 C-65.90023682 60.01477234 -65.89935059 61.05591187 -65.8984375 62.12860107 C-65.88603538 74.53381927 -65.78539816 86.90750431 -65.13427734 99.29785156 C-64.63420408 108.85600867 -64.68641967 118.40527216 -64.77612305 127.97363281 C-79.7477337 126.72325654 -94.70368684 125.32623227 -109.65893555 123.89550781 C-111.61799706 123.70845165 -113.57706279 123.52143962 -115.53613281 123.33447266 C-120.28284488 122.88136732 -125.0294998 122.4276677 -129.77612305 121.97363281 C-129.98625358 111.08914644 -130.14536726 100.20515593 -130.24243259 89.31904125 C-130.28906096 84.26200531 -130.35212116 79.20637415 -130.45507812 74.15014648 C-130.55411938 69.25461202 -130.60693761 64.36041331 -130.63001823 59.46395302 C-130.64642801 57.61220623 -130.67846175 55.76051821 -130.72769356 53.90935326 C-131.17381688 36.41095551 -126.35264909 22.2229017 -114.21362305 9.34863281 C-109.70993618 4.77669749 -106.33167847 3.17176686 -99.77612305 2.97363281 C-99.02129639 2.92770996 -98.26646973 2.88178711 -97.48876953 2.83447266 C-94.27485059 2.64169714 -91.05913233 2.5075674 -87.8425293 2.36816406 C-84.11041307 2.19274855 -80.42586129 1.96550479 -76.72143555 1.46972656 C-72.52165026 0.94163475 -68.3763847 0.71269339 -64.15112305 0.53613281 C-56.08429027 0.16519791 -48.0694122 -0.49267247 -40.04125977 -1.3659668 C-26.43697967 -2.73833977 -13.46237094 -2.05576586 0 0 Z " fill="#010101" transform="translate(420.776123046875,80.0263671875)"/>
<path d="M0 0 C1.73478859 -0.00197891 1.73478859 -0.00197891 3.50462341 -0.0039978 C6.72026702 -0.0056053 9.93585289 -0.00215029 13.15148926 0.00424194 C15.18880355 0.00782165 17.22611068 0.00943638 19.26342773 0.01049805 C61.71759697 0.03765208 104.17062648 0.61923219 146.62109375 1.1328125 C147.53115985 3.86301079 147.86637671 5.9560791 148.10180664 8.796875 C148.18181412 9.74216064 148.26182159 10.68744629 148.34425354 11.66137695 C148.42658737 12.68320068 148.5089212 13.70502441 148.59375 14.7578125 C148.68111923 15.81508545 148.76848846 16.8723584 148.85850525 17.96166992 C149.04271591 20.204274 149.22500052 22.44703699 149.40551758 24.68994141 C149.68029736 28.0919998 149.96374285 31.4932572 150.24804688 34.89453125 C150.42631043 37.07808186 150.60406069 39.26167445 150.78125 41.4453125 C150.86560806 42.45094238 150.94996613 43.45657227 151.03688049 44.49267578 C151.55642788 51.05334438 151.71846297 57.5525655 151.62109375 64.1328125 C140.9301451 66.28890597 130.29497938 68.32310504 119.44555664 69.48388672 C114.58558109 70.00437068 109.80656631 70.74543124 104.99584961 71.59814453 C100.92309355 72.24339779 96.84231848 72.72667662 92.74609375 73.1953125 C91.57046875 73.33163086 91.57046875 73.33163086 90.37109375 73.47070312 C88.45458092 73.69273815 86.53785828 73.91296089 84.62109375 74.1328125 C84.67415176 75.01075974 84.72720978 75.88870697 84.78187561 76.79325867 C86.03328182 97.662439 87.07160409 118.52942286 87.88232422 139.42016602 C88.19119732 147.37291772 88.51275583 155.32516238 88.8359375 163.27734375 C88.88478907 164.48109838 88.88478907 164.48109838 88.93462753 165.7091713 C89.57832535 181.52149239 90.33161008 197.32707222 91.12109375 213.1328125 C92.40906084 238.92865618 93.50457421 264.72976184 94.52784348 290.53730965 C94.64668256 293.53191517 94.76626219 296.52649069 94.88617706 299.52105331 C94.94362563 300.95763998 95.00081237 302.39423714 95.05773163 303.83084488 C95.45170162 313.90292104 95.45170162 313.90292104 96.06121826 323.9637146 C96.84315068 335.82607777 96.62109375 346.99802387 96.62109375 359.1328125 C72.53109375 359.1328125 48.44109375 359.1328125 23.62109375 359.1328125 C23.50605806 307.03442829 23.62128272 254.94052724 24.01065129 202.84363961 C24.04248607 198.58054315 24.07341473 194.31744164 24.1034345 190.05433202 C24.35450816 154.40766569 24.79753449 118.77135002 25.62109375 83.1328125 C24.46899918 83.13788818 23.3169046 83.14296387 22.12989807 83.14819336 C20.59514395 83.15229943 19.06038949 83.15628042 17.52563477 83.16015625 C16.39075497 83.16565491 16.39075497 83.16565491 15.2329483 83.17126465 C8.9645102 83.18310965 2.79314597 82.78861472 -3.44140625 82.1328125 C-4.41400391 82.03742188 -5.38660156 81.94203125 -6.38867188 81.84375 C-8.71959264 81.61410263 -11.04949638 81.37722665 -13.37890625 81.1328125 C-15.59532356 54.48472501 -17.2237023 27.84768159 -18.37890625 1.1328125 C-12.23199336 0.04904444 -6.23207963 -0.01160465 0 0 Z " fill="#010101" transform="translate(503.37890625,83.8671875)"/>
<path d="M0 0 C4.00678554 -0.14141596 7.99212525 -0.1022417 12 0 C13.07604492 0.02537842 13.07604492 0.02537842 14.17382812 0.05126953 C29.43596399 0.57112377 29.43596399 0.57112377 35.6875 6.25 C37.13368858 7.82540131 38.57211497 9.40799025 40 11 C41.25956016 11.89115126 42.52954264 12.76787529 43.8125 13.625 C49.01996007 17.98501963 50.25832943 25.73129055 52 32 C52.54333984 33.70542969 52.54333984 33.70542969 53.09765625 35.4453125 C54.74651075 41.94079993 54.67917484 48.5453977 54.87695312 55.21679688 C55.00303731 58.06870117 55.25305022 60.89205088 55.515625 63.734375 C56.65781485 79.67108155 52.10653614 90.44085891 43.87451172 103.95068359 C39.17511677 109.08831334 31.26192407 108.68063557 24.73828125 108.9765625 C3.83116132 109.41558066 3.83116132 109.41558066 -3 106 C-3.28156919 76.88574616 -2.67858561 47.71582612 -1.5 18.625 C-1.46463135 17.73731934 -1.4292627 16.84963867 -1.39282227 15.93505859 C-1.1501935 10.58873113 -0.63892618 5.31373605 0 0 Z " fill="#D1D5DB" transform="translate(126,280)"/>
<path d="M0 0 C5.95901714 -0.0994253 11.91754355 -0.17173064 17.87719727 -0.21972656 C19.90137146 -0.2397503 21.92548847 -0.26697767 23.94946289 -0.30175781 C26.87140065 -0.35068462 29.7925688 -0.3730615 32.71484375 -0.390625 C33.60896469 -0.41127014 34.50308563 -0.43191528 35.42430115 -0.45318604 C41.57090128 -0.45534485 46.78133011 0.59636794 52 4 C54.04592265 6.46034689 55.43567299 8.9944982 56.8125 11.875 C57.52518792 13.26933318 58.24000443 14.66258059 58.95703125 16.0546875 C59.29331543 16.73748779 59.62959961 17.42028809 59.97607422 18.1237793 C61.04611673 20.22648424 61.04611673 20.22648424 63.18359375 22.63671875 C66.12654537 28.08592595 65.94875673 33.83418574 66.25 39.9375 C66.36601562 41.81211914 66.36601562 41.81211914 66.484375 43.72460938 C67.11151293 54.26836583 66.97420578 62.34597199 63.375 72.3125 C63.04371094 73.31345703 62.71242187 74.31441406 62.37109375 75.34570312 C59.78371892 82.57570712 59.78371892 82.57570712 56.12109375 84.55859375 C55.09113281 84.70425781 54.06117188 84.84992188 53 85 C51.99324219 85.30421875 50.98648438 85.6084375 49.94921875 85.921875 C40.80549732 88.24339469 33.36444167 87.82400123 24.15332031 86.33935547 C21.26566304 85.88427116 18.36958274 85.51117549 15.47045898 85.13745117 C12.64500748 84.77269071 9.82258769 84.38620559 7 84 C-3.26534725 57.13536783 -0.68629535 28.22992661 0 0 Z " fill="#D1D5DB" transform="translate(127,145)"/>
</svg>
